<!--
    favicon: stroke width 8
-->

<svg width="348" height="402" viewBox="0 0 348 402" fill="none" xmlns="http://www.w3.org/2000/svg">
<path d="M288.274 86.2012C293.327 91.2545 295.529 99.1528 294.669 109.654C293.81 120.141 289.912 132.869 283.227 147.039C269.867 175.358 245.621 208.924 213.608 240.937C181.595 272.951 148.029 297.196 119.71 310.556C105.54 317.241 92.8113 321.139 82.3243 321.998C71.8235 322.858 63.9251 320.656 58.8718 315.603C53.8186 310.55 51.6167 302.652 52.4768 292.151C53.3358 281.664 57.2341 268.935 63.9188 254.765C77.2785 226.446 101.524 192.88 133.538 160.867C165.551 128.854 199.117 104.608 227.436 91.2481C241.606 84.5634 254.334 80.6651 264.821 79.8061C275.322 78.946 283.221 81.1479 288.274 86.2012Z" stroke="#00C2FF" stroke-width="8"/>
<path d="M215.786 240.204C278.502 177.488 311.096 108.399 288.586 85.8888C266.076 63.3787 196.986 95.9721 134.27 158.688" stroke="black" stroke-width="8"/>
<path d="M335.312 201.082C335.312 208.229 331.284 215.371 323.25 222.188C315.228 228.996 303.471 235.24 288.724 240.532C259.253 251.11 218.374 257.701 173.1 257.701C127.826 257.701 86.9474 251.11 57.476 240.532C42.7296 235.24 30.9728 228.996 22.95 222.188C14.9166 215.371 10.8885 208.229 10.8885 201.082C10.8885 193.936 14.9166 186.794 22.95 179.977C30.9728 173.169 42.7296 166.925 57.476 161.632C86.9474 151.054 127.826 144.464 173.1 144.464C218.374 144.464 259.253 151.054 288.724 161.632C303.471 166.925 315.228 173.169 323.25 179.977C331.284 186.794 335.312 193.936 335.312 201.082Z" stroke="#00C2FF" stroke-width="8"/>
<path d="M254.206 60.6033C260.395 64.1765 264.566 71.2358 266.453 81.6014C268.338 91.9534 267.867 105.257 265.077 120.674C259.502 151.486 244.77 190.184 222.133 229.392C199.496 268.6 173.349 300.707 149.453 320.941C137.496 331.066 126.21 338.125 116.303 341.669C106.383 345.218 98.1834 345.135 91.9945 341.562C85.8055 337.989 81.6344 330.93 79.7474 320.564C77.8628 310.212 78.334 296.908 81.1235 281.491C86.6984 250.679 101.43 211.982 124.067 172.773C146.704 133.565 172.851 101.458 196.748 81.2242C208.705 71.0998 219.99 64.04 229.898 60.4961C239.818 56.9475 248.017 57.0301 254.206 60.6033Z" stroke="#00C2FF" stroke-width="8"/>
<path d="M313.58 119.977C317.153 126.166 317.235 134.365 313.687 144.285C310.143 154.192 303.083 165.478 292.959 177.435C272.725 201.332 240.618 227.479 201.409 250.115C162.201 272.752 123.504 287.484 92.6917 293.059C77.2746 295.849 63.9709 296.32 53.6189 294.435C43.2533 292.548 36.194 288.377 32.6208 282.188C29.0476 275.999 28.9649 267.8 32.5136 257.88C36.0575 247.972 43.1173 236.687 53.2417 224.73C73.4757 200.833 105.583 174.686 144.791 152.049C183.999 129.413 222.697 114.681 253.509 109.106C268.926 106.316 282.229 105.845 292.581 107.73C302.947 109.617 310.006 113.788 313.58 119.977Z" stroke="#00C2FF" stroke-width="8"/>
</svg>
